<svg width="314" height="114" viewBox="0 0 314 114" fill="none" xmlns="http://www.w3.org/2000/svg">
<path d="M4.53125 24.7812C6.53125 24.8437 8.28125 24.875 9.78125 24.875C11.2812 24.8125 12.5 24.7812 13.4375 24.7812H16.1562C16.8438 24.7188 17.6875 24.6875 18.6875 24.6875C19.5625 24.6875 20.625 24.6875 21.875 24.6875C23.125 24.6875 24.5625 24.7188 26.1875 24.7812C26.6875 26.5312 27.25 28.25 27.875 29.9375C28.5625 31.5625 29.1562 33.0312 29.6562 34.3438C30.2812 35.9062 30.9062 37.375 31.5312 38.75C32.1562 40.125 32.9062 41.7812 33.7812 43.7188C34.5312 45.3438 35.4375 47.3438 36.5 49.7188C37.5625 52.0312 38.8125 54.6875 40.25 57.6875C40.9375 55.75 41.5625 53.9688 42.125 52.3438C42.75 50.7188 43.2812 49.3125 43.7188 48.125C44.2188 46.75 44.625 45.5 44.9375 44.375C45.25 43.25 45.5938 41.875 45.9688 40.25C46.2812 38.875 46.625 37.2188 47 35.2812C47.4375 33.3438 47.875 31.0938 48.3125 28.5312C50.125 28.5312 51.75 28.5312 53.1875 28.5312C54.625 28.5312 55.875 28.5 56.9375 28.4375C58.125 28.4375 59.1875 28.4062 60.125 28.3438C61.125 28.3438 62.4688 28.2813 64.1562 28.1562C65.5938 28.0312 67.5 27.9375 69.875 27.875C72.3125 27.75 75.3125 27.5938 78.875 27.4062C77.5625 28.3438 76.5 29.2812 75.6875 30.2188C74.9375 31.0938 74.3438 31.875 73.9062 32.5625C73.4062 33.375 73.0938 34.1562 72.9688 34.9062C72.8438 35.5312 72.7188 36.9688 72.5938 39.2188C72.5312 41.4688 72.4375 44.1562 72.3125 47.2812C72.25 50.3438 72.1875 53.625 72.125 57.125C72.125 60.625 72.1562 63.9375 72.2188 67.0625C72.2812 70.1875 72.375 72.9062 72.5 75.2188C72.6875 77.4688 72.9375 78.9062 73.25 79.5312C73.6875 80.2812 74.2812 81.1562 75.0312 82.1562C75.7188 83.0312 76.5938 84.0312 77.6562 85.1562C78.7812 86.2812 80.25 87.5312 82.0625 88.9062C79.1875 89.0312 76.7812 89.125 74.8438 89.1875C72.9688 89.25 71.4062 89.3125 70.1562 89.375C68.7188 89.4375 67.5625 89.4688 66.6875 89.4688C65.75 89.4688 64.4688 89.5 62.8438 89.5625C61.4062 89.625 59.5 89.7188 57.125 89.8438C54.75 89.9062 51.6875 90.0312 47.9375 90.2188C48.8125 89.2188 49.625 88.2188 50.375 87.2188C51.125 86.2188 51.75 85.3125 52.25 84.5C52.875 83.5625 53.4062 82.6562 53.8438 81.7812C54.2812 80.5938 54.625 78.4375 54.875 75.3125C55.125 72.625 55.3125 68.7812 55.4375 63.7812C55.5625 58.7188 55.5625 51.9375 55.4375 43.4375C54.25 45.375 53.1875 47.3125 52.25 49.25C51.375 51.125 50.5938 52.8438 49.9062 54.4062C49.1562 56.2188 48.4688 57.9688 47.8438 59.6562C47.2188 61.4062 46.5625 63.3438 45.875 65.4688C45.25 67.2812 44.5 69.4375 43.625 71.9375C42.8125 74.4375 41.875 77.1875 40.8125 80.1875L37.25 80.375C36.75 77.875 36.25 75.625 35.75 73.625C35.25 71.5625 34.75 69.8125 34.25 68.375C33.6875 66.6875 33.125 65.1875 32.5625 63.875C31.9375 62.5625 31.25 61.0938 30.5 59.4688C29.8125 58.0938 28.9688 56.4688 27.9688 54.5938C27.0312 52.7188 25.9375 50.625 24.6875 48.3125C24.0625 54.6875 23.6875 59.875 23.5625 63.875C23.4375 67.8125 23.4375 70.875 23.5625 73.0625C23.6875 75.6875 23.875 77.5938 24.125 78.7812C24.5 79.8438 25.0938 81.0312 25.9062 82.3438C26.5938 83.4688 27.5312 84.8125 28.7188 86.375C29.9688 87.875 31.5625 89.5625 33.5 91.4375C32.125 91.4375 30.6875 91.4375 29.1875 91.4375C27.6875 91.4375 26.3125 91.4688 25.0625 91.5312C23.5625 91.5938 22.0938 91.625 20.6562 91.625C19.1562 91.6875 17.4062 91.7812 15.4062 91.9062C13.6562 92.0312 11.5625 92.1562 9.125 92.2812C6.6875 92.4062 3.875 92.625 0.6875 92.9375C2.0625 92.0625 3.1875 91.2188 4.0625 90.4062C4.9375 89.5312 5.625 88.75 6.125 88.0625C6.75 87.25 7.21875 86.4375 7.53125 85.625C7.71875 85.125 7.875 84.0312 8 82.3438C8.1875 80.6562 8.34375 78.5938 8.46875 76.1562C8.65625 73.7188 8.78125 71 8.84375 68C8.96875 65 9.0625 61.9688 9.125 58.9062C9.25 55.7812 9.34375 52.75 9.40625 49.8125C9.46875 46.8125 9.5 44.125 9.5 41.75C9.5625 39.3125 9.59375 37.2812 9.59375 35.6562C9.59375 34.0312 9.59375 33 9.59375 32.5625C9.40625 31.625 9.125 30.6875 8.75 29.75C8.4375 28.9375 7.9375 28.0938 7.25 27.2188C6.5625 26.3437 5.65625 25.5312 4.53125 24.7812ZM106.25 50C107.875 50 109.562 50.3125 111.312 50.9375C113.062 51.5 114.75 52.25 116.375 53.1875C118 54.0625 119.469 55.0312 120.781 56.0938C122.156 57.0938 123.281 58.0625 124.156 59C125.719 60.6875 126.781 62.9688 127.344 65.8438C127.969 68.6562 128.094 71.5625 127.719 74.5625C127.344 77.5 126.469 80.2812 125.094 82.9062C123.719 85.5312 121.812 87.4688 119.375 88.7188C117.625 89.5938 115.906 90.2812 114.219 90.7812C112.531 91.2812 110.906 91.6562 109.344 91.9062C107.781 92.1562 106.312 92.2812 104.938 92.2812C103.562 92.2812 102.375 92.25 101.375 92.1875C99.5 92.0625 97.5312 91.4062 95.4688 90.2188C93.4688 89.0312 91.5625 87.5625 89.75 85.8125C88 84.0625 86.5 82.1562 85.25 80.0938C84 77.9688 83.25 75.9688 83 74.0938C82.625 71.5312 82.5625 68.8438 82.8125 66.0312C83.0625 63.2188 83.9688 60.625 85.5312 58.25C87.1562 55.875 89.5938 53.9062 92.8438 52.3438C96.1562 50.7812 100.625 50 106.25 50ZM103.156 86.375C103.844 86.5 104.781 86.3438 105.969 85.9062C107.156 85.4062 108.312 84.625 109.438 83.5625C110.625 82.5 111.656 81.1562 112.531 79.5312C113.469 77.8438 114.031 75.8125 114.219 73.4375C114.406 71.125 114.406 69 114.219 67.0625C114.094 65.125 113.812 63.4375 113.375 62C112.938 60.5 112.438 59.2812 111.875 58.3438C111.312 57.4062 110.719 56.75 110.094 56.375C109.031 55.8125 107.75 55.375 106.25 55.0625C104.75 54.6875 103.469 54.75 102.406 55.25C101.906 55.5 101.281 56.0312 100.531 56.8438C99.7812 57.6562 99.0312 58.6875 98.2812 59.9375C97.5312 61.125 96.8438 62.5 96.2188 64.0625C95.6562 65.625 95.25 67.25 95 68.9375C94.75 70.625 94.6875 72.4375 94.8125 74.375C95 76.3125 95.4062 78.1562 96.0312 79.9062C96.6562 81.5938 97.5312 83.0625 98.6562 84.3125C99.8438 85.5 101.344 86.1875 103.156 86.375ZM157.344 50C158.969 50 160.656 50.3125 162.406 50.9375C164.156 51.5 165.844 52.25 167.469 53.1875C169.094 54.0625 170.562 55.0312 171.875 56.0938C173.25 57.0938 174.375 58.0625 175.25 59C176.812 60.6875 177.875 62.9688 178.438 65.8438C179.062 68.6562 179.188 71.5625 178.812 74.5625C178.438 77.5 177.562 80.2812 176.188 82.9062C174.812 85.5312 172.906 87.4688 170.469 88.7188C168.719 89.5938 167 90.2812 165.312 90.7812C163.625 91.2812 162 91.6562 160.438 91.9062C158.875 92.1562 157.406 92.2812 156.031 92.2812C154.656 92.2812 153.469 92.25 152.469 92.1875C150.594 92.0625 148.625 91.4062 146.562 90.2188C144.562 89.0312 142.656 87.5625 140.844 85.8125C139.094 84.0625 137.594 82.1562 136.344 80.0938C135.094 77.9688 134.344 75.9688 134.094 74.0938C133.719 71.5312 133.656 68.8438 133.906 66.0312C134.156 63.2188 135.062 60.625 136.625 58.25C138.25 55.875 140.688 53.9062 143.938 52.3438C147.25 50.7812 151.719 50 157.344 50ZM154.25 86.375C154.938 86.5 155.875 86.3438 157.062 85.9062C158.25 85.4062 159.406 84.625 160.531 83.5625C161.719 82.5 162.75 81.1562 163.625 79.5312C164.562 77.8438 165.125 75.8125 165.312 73.4375C165.5 71.125 165.5 69 165.312 67.0625C165.188 65.125 164.906 63.4375 164.469 62C164.031 60.5 163.531 59.2812 162.969 58.3438C162.406 57.4062 161.812 56.75 161.188 56.375C160.125 55.8125 158.844 55.375 157.344 55.0625C155.844 54.6875 154.562 54.75 153.5 55.25C153 55.5 152.375 56.0312 151.625 56.8438C150.875 57.6562 150.125 58.6875 149.375 59.9375C148.625 61.125 147.938 62.5 147.312 64.0625C146.75 65.625 146.344 67.25 146.094 68.9375C145.844 70.625 145.781 72.4375 145.906 74.375C146.094 76.3125 146.5 78.1562 147.125 79.9062C147.75 81.5938 148.625 83.0625 149.75 84.3125C150.938 85.5 152.438 86.1875 154.25 86.375ZM229.344 20.1875C230.531 20.25 231.812 20.2812 233.188 20.2812C234.375 20.2812 235.719 20.3125 237.219 20.375C238.781 20.375 240.406 20.3125 242.094 20.1875C240.594 20.875 239.281 21.875 238.156 23.1875C237.031 24.5 236.125 25.8125 235.438 27.125C234.562 28.6875 233.844 30.3125 233.281 32C232.969 33 232.719 34.7812 232.531 37.3438C232.344 39.8438 232.188 42.7812 232.062 46.1562C232 49.5312 231.969 53.0938 231.969 56.8438C231.969 60.5938 232 64.1875 232.062 67.625C232.125 71 232.219 74 232.344 76.625C232.469 79.25 232.625 81.0938 232.812 82.1562C233.062 83.4062 233.375 84.5938 233.75 85.7188C234.062 86.7188 234.469 87.75 234.969 88.8125C235.469 89.8125 236.094 90.625 236.844 91.25L227.281 95.5625C226.781 94.875 226.375 94.1562 226.062 93.4062C225.75 92.7188 225.5 92.0938 225.312 91.5312C225.062 90.8438 224.906 90.2188 224.844 89.6562C224.719 88.9062 224.594 88.0938 224.469 87.2188C224.344 86.2812 224.188 85.4062 224 84.5938C223.875 83.7188 223.781 83 223.719 82.4375C223.656 81.875 223.656 81.5312 223.719 81.4062C223.781 81.2812 223.406 81.8438 222.594 83.0938C221.781 84.2812 220.562 85.6875 218.938 87.3125C217.375 88.875 215.438 90.4062 213.125 91.9062C210.812 93.3438 208.219 94.25 205.344 94.625C202.406 95 199.688 94.4375 197.188 92.9375C194.75 91.4375 192.656 89.3438 190.906 86.6562C189.156 83.9062 187.812 80.75 186.875 77.1875C186 73.5625 185.656 69.875 185.844 66.125C185.969 63.625 186.531 61.4062 187.531 59.4688C188.531 57.4688 189.781 55.75 191.281 54.3125C192.844 52.8125 194.531 51.5625 196.344 50.5625C198.219 49.5 200.031 48.625 201.781 47.9375C203.594 47.25 205.281 46.75 206.844 46.4375C208.406 46.125 209.656 45.9062 210.594 45.7812C211.719 45.7188 213 45.9062 214.438 46.3438C215.688 46.7188 217.125 47.3438 218.75 48.2188C220.438 49.0938 222.312 50.4062 224.375 52.1562C224 45.9062 223.656 40.9062 223.344 37.1562C223.031 33.3438 222.719 30.4375 222.406 28.4375C222.094 26.0625 221.812 24.4375 221.562 23.5625C221.25 22.9375 220.844 22.3125 220.344 21.6875C219.906 21.1875 219.344 20.6875 218.656 20.1875C218.031 19.625 217.281 19.1875 216.406 18.875C218.031 19.1875 219.594 19.4062 221.094 19.5312C222.594 19.6563 223.969 19.7812 225.219 19.9062C226.656 20.0313 228.031 20.125 229.344 20.1875ZM205.812 55.1562C204.625 55.5938 203.656 56.3438 202.906 57.4062C202.219 58.4688 201.656 59.75 201.219 61.25C200.781 62.6875 200.469 64.25 200.281 65.9375C200.156 67.5625 200.062 69.1562 200 70.7188C200 72.2188 200 73.5938 200 74.8438C200 76.0938 200 77.0312 200 77.6562C200 78.0312 200.062 78.7188 200.188 79.7188C200.375 80.6562 200.75 81.6562 201.312 82.7188C201.875 83.7188 202.656 84.625 203.656 85.4375C204.719 86.25 206.125 86.6562 207.875 86.6562C209.312 86.5312 210.844 86.0312 212.469 85.1562C213.906 84.4062 215.531 83.2188 217.344 81.5938C219.219 79.9062 221.219 77.5 223.344 74.375C223.219 72.375 223.125 70.7188 223.062 69.4062C223.062 68.0938 223.031 67.0312 222.969 66.2188C222.906 65.2812 222.875 64.5312 222.875 63.9688V62.5625C222.875 62.1875 222.875 61.7812 222.875 61.3438C222.875 60.9062 222.906 60.5 222.969 60.125C221.219 58.875 219.656 57.8125 218.281 56.9375C216.969 56 215.656 55.3125 214.344 54.875C213.094 54.375 211.781 54.1562 210.406 54.2188C209.094 54.2188 207.562 54.5312 205.812 55.1562ZM235.344 44.0938C236.594 44.2812 237.719 44.4375 238.719 44.5625C239.656 44.625 240.5 44.6875 241.25 44.75C242.062 44.8125 242.844 44.8438 243.594 44.8438C244.281 44.8438 245.156 44.8125 246.219 44.75C247.094 44.6875 248.219 44.625 249.594 44.5625C251.031 44.4375 252.719 44.2812 254.656 44.0938C254.531 44.3438 254.281 45.125 253.906 46.4375C253.531 47.6875 253.156 49.25 252.781 51.125C252.406 52.9375 252.062 54.9688 251.75 57.2188C251.5 59.4062 251.375 61.5938 251.375 63.7812C251.438 65.9062 251.719 67.9375 252.219 69.875C252.719 71.75 253.531 73.2812 254.656 74.4688C257.031 76.9062 259.125 78.375 260.938 78.875C262.812 79.375 264.438 79.3125 265.812 78.6875C267.188 78.0625 268.312 77.125 269.188 75.875C270.062 74.625 270.688 73.4688 271.062 72.4062C272 69.5312 272.562 66.5 272.75 63.3125C272.875 60.5625 272.656 57.5 272.094 54.125C271.531 50.75 270.188 47.3125 268.062 43.8125C269.688 43.9375 271.094 44.0312 272.281 44.0938C273.469 44.1562 274.5 44.2188 275.375 44.2812C276.375 44.3438 277.25 44.4062 278 44.4688C278.688 44.5312 279.5 44.5312 280.438 44.4688C281.25 44.4688 282.219 44.4375 283.344 44.375C284.531 44.25 285.844 44.125 287.281 44C287.531 50.125 287.75 55.5938 287.938 60.4062C288.125 65.1562 288.25 69.375 288.312 73.0625C288.438 76.6875 288.5 79.8438 288.5 82.5312C288.5 85.1562 288.5 87.375 288.5 89.1875C288.438 93.5 288.25 96.3438 287.938 97.7188C287.438 99.6562 286.531 101.594 285.219 103.531C283.969 105.469 282.375 107.188 280.438 108.688C278.5 110.25 276.25 111.438 273.688 112.25C271.188 113.125 268.438 113.438 265.438 113.188C262.5 112.938 260.156 112.531 258.406 111.969C256.719 111.469 255.375 110.875 254.375 110.188C253.438 109.5 252.75 108.781 252.312 108.031C251.938 107.281 251.656 106.5 251.469 105.688C251.281 104.938 251.094 104.219 250.906 103.531C250.719 102.844 250.344 102.25 249.781 101.75C249.094 101.188 248.375 100.625 247.625 100.062C246.938 99.5625 246.188 99.0625 245.375 98.5625C244.625 98.0625 243.875 97.6562 243.125 97.3438L263.094 96.2188C262.531 96.9688 262.125 97.6562 261.875 98.2812C261.625 98.9062 261.469 99.4375 261.406 99.875C261.344 100.438 261.375 100.906 261.5 101.281C261.75 102.031 262.188 102.844 262.812 103.719C263.5 104.656 264.375 105.375 265.438 105.875C266.5 106.438 267.75 106.625 269.188 106.438C270.688 106.25 272.375 105.469 274.25 104.094C275.812 102.906 277.125 101 278.188 98.375C279.062 96.125 279.75 92.9688 280.25 88.9062C280.75 84.8438 280.656 79.5 279.969 72.875C278.844 76.75 277.312 79.7188 275.375 81.7812C273.438 83.8438 271.5 85.3438 269.562 86.2812C267.312 87.4062 264.969 88 262.531 88.0625C259.281 87.9375 256.5 87.5312 254.188 86.8438C251.875 86.0938 249.969 85.0938 248.469 83.8438C246.969 82.5938 245.781 81.125 244.906 79.4375C244.094 77.6875 243.5 75.75 243.125 73.625C242.75 71.5 242.562 69.375 242.562 67.25C242.562 65.0625 242.562 63.0312 242.562 61.1562C242.625 59.2812 242.656 57.5938 242.656 56.0938C242.656 54.5312 242.5 53.2812 242.188 52.3438C241.812 51.4062 241.312 50.4688 240.688 49.5312C240.188 48.7188 239.5 47.8438 238.625 46.9062C237.688 45.9062 236.594 44.9688 235.344 44.0938Z" fill="#307986"/>
<path d="M24.5312 24.7812C26.5312 24.8437 28.2812 24.875 29.7812 24.875C31.2812 24.8125 32.5 24.7812 33.4375 24.7812H36.1562C36.8438 24.7188 37.6875 24.6875 38.6875 24.6875C39.5625 24.6875 40.625 24.6875 41.875 24.6875C43.125 24.6875 44.5625 24.7188 46.1875 24.7812C46.6875 26.5312 47.25 28.25 47.875 29.9375C48.5625 31.5625 49.1562 33.0312 49.6562 34.3438C50.2812 35.9062 50.9062 37.375 51.5312 38.75C52.1562 40.125 52.9062 41.7812 53.7812 43.7188C54.5312 45.3438 55.4375 47.3438 56.5 49.7188C57.5625 52.0312 58.8125 54.6875 60.25 57.6875C60.9375 55.75 61.5625 53.9688 62.125 52.3438C62.75 50.7188 63.2812 49.3125 63.7188 48.125C64.2188 46.75 64.625 45.5 64.9375 44.375C65.25 43.25 65.5938 41.875 65.9688 40.25C66.2812 38.875 66.625 37.2188 67 35.2812C67.4375 33.3438 67.875 31.0938 68.3125 28.5312C70.125 28.5312 71.75 28.5312 73.1875 28.5312C74.625 28.5312 75.875 28.5 76.9375 28.4375C78.125 28.4375 79.1875 28.4062 80.125 28.3438C81.125 28.3438 82.4688 28.2813 84.1562 28.1562C85.5938 28.0312 87.5 27.9375 89.875 27.875C92.3125 27.75 95.3125 27.5938 98.875 27.4062C97.5625 28.3438 96.5 29.2812 95.6875 30.2188C94.9375 31.0938 94.3438 31.875 93.9062 32.5625C93.4062 33.375 93.0938 34.1562 92.9688 34.9062C92.8438 35.5312 92.7188 36.9688 92.5938 39.2188C92.5312 41.4688 92.4375 44.1562 92.3125 47.2812C92.25 50.3438 92.1875 53.625 92.125 57.125C92.125 60.625 92.1562 63.9375 92.2188 67.0625C92.2812 70.1875 92.375 72.9062 92.5 75.2188C92.6875 77.4688 92.9375 78.9062 93.25 79.5312C93.6875 80.2812 94.2812 81.1562 95.0312 82.1562C95.7188 83.0312 96.5938 84.0312 97.6562 85.1562C98.7812 86.2812 100.25 87.5312 102.062 88.9062C99.1875 89.0312 96.7812 89.125 94.8438 89.1875C92.9688 89.25 91.4062 89.3125 90.1562 89.375C88.7188 89.4375 87.5625 89.4688 86.6875 89.4688C85.75 89.4688 84.4688 89.5 82.8438 89.5625C81.4062 89.625 79.5 89.7188 77.125 89.8438C74.75 89.9062 71.6875 90.0312 67.9375 90.2188C68.8125 89.2188 69.625 88.2188 70.375 87.2188C71.125 86.2188 71.75 85.3125 72.25 84.5C72.875 83.5625 73.4062 82.6562 73.8438 81.7812C74.2812 80.5938 74.625 78.4375 74.875 75.3125C75.125 72.625 75.3125 68.7812 75.4375 63.7812C75.5625 58.7188 75.5625 51.9375 75.4375 43.4375C74.25 45.375 73.1875 47.3125 72.25 49.25C71.375 51.125 70.5938 52.8438 69.9062 54.4062C69.1562 56.2188 68.4688 57.9688 67.8438 59.6562C67.2188 61.4062 66.5625 63.3438 65.875 65.4688C65.25 67.2812 64.5 69.4375 63.625 71.9375C62.8125 74.4375 61.875 77.1875 60.8125 80.1875L57.25 80.375C56.75 77.875 56.25 75.625 55.75 73.625C55.25 71.5625 54.75 69.8125 54.25 68.375C53.6875 66.6875 53.125 65.1875 52.5625 63.875C51.9375 62.5625 51.25 61.0938 50.5 59.4688C49.8125 58.0938 48.9688 56.4688 47.9688 54.5938C47.0312 52.7188 45.9375 50.625 44.6875 48.3125C44.0625 54.6875 43.6875 59.875 43.5625 63.875C43.4375 67.8125 43.4375 70.875 43.5625 73.0625C43.6875 75.6875 43.875 77.5938 44.125 78.7812C44.5 79.8438 45.0938 81.0312 45.9062 82.3438C46.5938 83.4688 47.5312 84.8125 48.7188 86.375C49.9688 87.875 51.5625 89.5625 53.5 91.4375C52.125 91.4375 50.6875 91.4375 49.1875 91.4375C47.6875 91.4375 46.3125 91.4688 45.0625 91.5312C43.5625 91.5938 42.0938 91.625 40.6562 91.625C39.1562 91.6875 37.4062 91.7812 35.4062 91.9062C33.6562 92.0312 31.5625 92.1562 29.125 92.2812C26.6875 92.4062 23.875 92.625 20.6875 92.9375C22.0625 92.0625 23.1875 91.2188 24.0625 90.4062C24.9375 89.5312 25.625 88.75 26.125 88.0625C26.75 87.25 27.2188 86.4375 27.5312 85.625C27.7188 85.125 27.875 84.0312 28 82.3438C28.1875 80.6562 28.3438 78.5938 28.4688 76.1562C28.6562 73.7188 28.7812 71 28.8438 68C28.9688 65 29.0625 61.9688 29.125 58.9062C29.25 55.7812 29.3438 52.75 29.4062 49.8125C29.4688 46.8125 29.5 44.125 29.5 41.75C29.5625 39.3125 29.5938 37.2812 29.5938 35.6562C29.5938 34.0312 29.5938 33 29.5938 32.5625C29.4062 31.625 29.125 30.6875 28.75 29.75C28.4375 28.9375 27.9375 28.0938 27.25 27.2188C26.5625 26.3437 25.6562 25.5312 24.5312 24.7812ZM126.25 50C127.875 50 129.562 50.3125 131.312 50.9375C133.062 51.5 134.75 52.25 136.375 53.1875C138 54.0625 139.469 55.0312 140.781 56.0938C142.156 57.0938 143.281 58.0625 144.156 59C145.719 60.6875 146.781 62.9688 147.344 65.8438C147.969 68.6562 148.094 71.5625 147.719 74.5625C147.344 77.5 146.469 80.2812 145.094 82.9062C143.719 85.5312 141.812 87.4688 139.375 88.7188C137.625 89.5938 135.906 90.2812 134.219 90.7812C132.531 91.2812 130.906 91.6562 129.344 91.9062C127.781 92.1562 126.312 92.2812 124.938 92.2812C123.562 92.2812 122.375 92.25 121.375 92.1875C119.5 92.0625 117.531 91.4062 115.469 90.2188C113.469 89.0312 111.562 87.5625 109.75 85.8125C108 84.0625 106.5 82.1562 105.25 80.0938C104 77.9688 103.25 75.9688 103 74.0938C102.625 71.5312 102.562 68.8438 102.812 66.0312C103.062 63.2188 103.969 60.625 105.531 58.25C107.156 55.875 109.594 53.9062 112.844 52.3438C116.156 50.7812 120.625 50 126.25 50ZM123.156 86.375C123.844 86.5 124.781 86.3438 125.969 85.9062C127.156 85.4062 128.312 84.625 129.438 83.5625C130.625 82.5 131.656 81.1562 132.531 79.5312C133.469 77.8438 134.031 75.8125 134.219 73.4375C134.406 71.125 134.406 69 134.219 67.0625C134.094 65.125 133.812 63.4375 133.375 62C132.938 60.5 132.438 59.2812 131.875 58.3438C131.312 57.4062 130.719 56.75 130.094 56.375C129.031 55.8125 127.75 55.375 126.25 55.0625C124.75 54.6875 123.469 54.75 122.406 55.25C121.906 55.5 121.281 56.0312 120.531 56.8438C119.781 57.6562 119.031 58.6875 118.281 59.9375C117.531 61.125 116.844 62.5 116.219 64.0625C115.656 65.625 115.25 67.25 115 68.9375C114.75 70.625 114.688 72.4375 114.812 74.375C115 76.3125 115.406 78.1562 116.031 79.9062C116.656 81.5938 117.531 83.0625 118.656 84.3125C119.844 85.5 121.344 86.1875 123.156 86.375ZM177.344 50C178.969 50 180.656 50.3125 182.406 50.9375C184.156 51.5 185.844 52.25 187.469 53.1875C189.094 54.0625 190.562 55.0312 191.875 56.0938C193.25 57.0938 194.375 58.0625 195.25 59C196.812 60.6875 197.875 62.9688 198.438 65.8438C199.062 68.6562 199.188 71.5625 198.812 74.5625C198.438 77.5 197.562 80.2812 196.188 82.9062C194.812 85.5312 192.906 87.4688 190.469 88.7188C188.719 89.5938 187 90.2812 185.312 90.7812C183.625 91.2812 182 91.6562 180.438 91.9062C178.875 92.1562 177.406 92.2812 176.031 92.2812C174.656 92.2812 173.469 92.25 172.469 92.1875C170.594 92.0625 168.625 91.4062 166.562 90.2188C164.562 89.0312 162.656 87.5625 160.844 85.8125C159.094 84.0625 157.594 82.1562 156.344 80.0938C155.094 77.9688 154.344 75.9688 154.094 74.0938C153.719 71.5312 153.656 68.8438 153.906 66.0312C154.156 63.2188 155.062 60.625 156.625 58.25C158.25 55.875 160.688 53.9062 163.938 52.3438C167.25 50.7812 171.719 50 177.344 50ZM174.25 86.375C174.938 86.5 175.875 86.3438 177.062 85.9062C178.25 85.4062 179.406 84.625 180.531 83.5625C181.719 82.5 182.75 81.1562 183.625 79.5312C184.562 77.8438 185.125 75.8125 185.312 73.4375C185.5 71.125 185.5 69 185.312 67.0625C185.188 65.125 184.906 63.4375 184.469 62C184.031 60.5 183.531 59.2812 182.969 58.3438C182.406 57.4062 181.812 56.75 181.188 56.375C180.125 55.8125 178.844 55.375 177.344 55.0625C175.844 54.6875 174.562 54.75 173.5 55.25C173 55.5 172.375 56.0312 171.625 56.8438C170.875 57.6562 170.125 58.6875 169.375 59.9375C168.625 61.125 167.938 62.5 167.312 64.0625C166.75 65.625 166.344 67.25 166.094 68.9375C165.844 70.625 165.781 72.4375 165.906 74.375C166.094 76.3125 166.5 78.1562 167.125 79.9062C167.75 81.5938 168.625 83.0625 169.75 84.3125C170.938 85.5 172.438 86.1875 174.25 86.375ZM249.344 20.1875C250.531 20.25 251.812 20.2812 253.188 20.2812C254.375 20.2812 255.719 20.3125 257.219 20.375C258.781 20.375 260.406 20.3125 262.094 20.1875C260.594 20.875 259.281 21.875 258.156 23.1875C257.031 24.5 256.125 25.8125 255.438 27.125C254.562 28.6875 253.844 30.3125 253.281 32C252.969 33 252.719 34.7812 252.531 37.3438C252.344 39.8438 252.188 42.7812 252.062 46.1562C252 49.5312 251.969 53.0938 251.969 56.8438C251.969 60.5938 252 64.1875 252.062 67.625C252.125 71 252.219 74 252.344 76.625C252.469 79.25 252.625 81.0938 252.812 82.1562C253.062 83.4062 253.375 84.5938 253.75 85.7188C254.062 86.7188 254.469 87.75 254.969 88.8125C255.469 89.8125 256.094 90.625 256.844 91.25L247.281 95.5625C246.781 94.875 246.375 94.1562 246.062 93.4062C245.75 92.7188 245.5 92.0938 245.312 91.5312C245.062 90.8438 244.906 90.2188 244.844 89.6562C244.719 88.9062 244.594 88.0938 244.469 87.2188C244.344 86.2812 244.188 85.4062 244 84.5938C243.875 83.7188 243.781 83 243.719 82.4375C243.656 81.875 243.656 81.5312 243.719 81.4062C243.781 81.2812 243.406 81.8438 242.594 83.0938C241.781 84.2812 240.562 85.6875 238.938 87.3125C237.375 88.875 235.438 90.4062 233.125 91.9062C230.812 93.3438 228.219 94.25 225.344 94.625C222.406 95 219.688 94.4375 217.188 92.9375C214.75 91.4375 212.656 89.3438 210.906 86.6562C209.156 83.9062 207.812 80.75 206.875 77.1875C206 73.5625 205.656 69.875 205.844 66.125C205.969 63.625 206.531 61.4062 207.531 59.4688C208.531 57.4688 209.781 55.75 211.281 54.3125C212.844 52.8125 214.531 51.5625 216.344 50.5625C218.219 49.5 220.031 48.625 221.781 47.9375C223.594 47.25 225.281 46.75 226.844 46.4375C228.406 46.125 229.656 45.9062 230.594 45.7812C231.719 45.7188 233 45.9062 234.438 46.3438C235.688 46.7188 237.125 47.3438 238.75 48.2188C240.438 49.0938 242.312 50.4062 244.375 52.1562C244 45.9062 243.656 40.9062 243.344 37.1562C243.031 33.3438 242.719 30.4375 242.406 28.4375C242.094 26.0625 241.812 24.4375 241.562 23.5625C241.25 22.9375 240.844 22.3125 240.344 21.6875C239.906 21.1875 239.344 20.6875 238.656 20.1875C238.031 19.625 237.281 19.1875 236.406 18.875C238.031 19.1875 239.594 19.4062 241.094 19.5312C242.594 19.6563 243.969 19.7812 245.219 19.9062C246.656 20.0313 248.031 20.125 249.344 20.1875ZM225.812 55.1562C224.625 55.5938 223.656 56.3438 222.906 57.4062C222.219 58.4688 221.656 59.75 221.219 61.25C220.781 62.6875 220.469 64.25 220.281 65.9375C220.156 67.5625 220.062 69.1562 220 70.7188C220 72.2188 220 73.5938 220 74.8438C220 76.0938 220 77.0312 220 77.6562C220 78.0312 220.062 78.7188 220.188 79.7188C220.375 80.6562 220.75 81.6562 221.312 82.7188C221.875 83.7188 222.656 84.625 223.656 85.4375C224.719 86.25 226.125 86.6562 227.875 86.6562C229.312 86.5312 230.844 86.0312 232.469 85.1562C233.906 84.4062 235.531 83.2188 237.344 81.5938C239.219 79.9062 241.219 77.5 243.344 74.375C243.219 72.375 243.125 70.7188 243.062 69.4062C243.062 68.0938 243.031 67.0312 242.969 66.2188C242.906 65.2812 242.875 64.5312 242.875 63.9688V62.5625C242.875 62.1875 242.875 61.7812 242.875 61.3438C242.875 60.9062 242.906 60.5 242.969 60.125C241.219 58.875 239.656 57.8125 238.281 56.9375C236.969 56 235.656 55.3125 234.344 54.875C233.094 54.375 231.781 54.1562 230.406 54.2188C229.094 54.2188 227.562 54.5312 225.812 55.1562ZM255.344 44.0938C256.594 44.2812 257.719 44.4375 258.719 44.5625C259.656 44.625 260.5 44.6875 261.25 44.75C262.062 44.8125 262.844 44.8438 263.594 44.8438C264.281 44.8438 265.156 44.8125 266.219 44.75C267.094 44.6875 268.219 44.625 269.594 44.5625C271.031 44.4375 272.719 44.2812 274.656 44.0938C274.531 44.3438 274.281 45.125 273.906 46.4375C273.531 47.6875 273.156 49.25 272.781 51.125C272.406 52.9375 272.062 54.9688 271.75 57.2188C271.5 59.4062 271.375 61.5938 271.375 63.7812C271.438 65.9062 271.719 67.9375 272.219 69.875C272.719 71.75 273.531 73.2812 274.656 74.4688C277.031 76.9062 279.125 78.375 280.938 78.875C282.812 79.375 284.438 79.3125 285.812 78.6875C287.188 78.0625 288.312 77.125 289.188 75.875C290.062 74.625 290.688 73.4688 291.062 72.4062C292 69.5312 292.562 66.5 292.75 63.3125C292.875 60.5625 292.656 57.5 292.094 54.125C291.531 50.75 290.188 47.3125 288.062 43.8125C289.688 43.9375 291.094 44.0312 292.281 44.0938C293.469 44.1562 294.5 44.2188 295.375 44.2812C296.375 44.3438 297.25 44.4062 298 44.4688C298.688 44.5312 299.5 44.5312 300.438 44.4688C301.25 44.4688 302.219 44.4375 303.344 44.375C304.531 44.25 305.844 44.125 307.281 44C307.531 50.125 307.75 55.5938 307.938 60.4062C308.125 65.1562 308.25 69.375 308.312 73.0625C308.438 76.6875 308.5 79.8438 308.5 82.5312C308.5 85.1562 308.5 87.375 308.5 89.1875C308.438 93.5 308.25 96.3438 307.938 97.7188C307.438 99.6562 306.531 101.594 305.219 103.531C303.969 105.469 302.375 107.188 300.438 108.688C298.5 110.25 296.25 111.438 293.688 112.25C291.188 113.125 288.438 113.438 285.438 113.188C282.5 112.938 280.156 112.531 278.406 111.969C276.719 111.469 275.375 110.875 274.375 110.188C273.438 109.5 272.75 108.781 272.312 108.031C271.938 107.281 271.656 106.5 271.469 105.688C271.281 104.938 271.094 104.219 270.906 103.531C270.719 102.844 270.344 102.25 269.781 101.75C269.094 101.188 268.375 100.625 267.625 100.062C266.938 99.5625 266.188 99.0625 265.375 98.5625C264.625 98.0625 263.875 97.6562 263.125 97.3438L283.094 96.2188C282.531 96.9688 282.125 97.6562 281.875 98.2812C281.625 98.9062 281.469 99.4375 281.406 99.875C281.344 100.438 281.375 100.906 281.5 101.281C281.75 102.031 282.188 102.844 282.812 103.719C283.5 104.656 284.375 105.375 285.438 105.875C286.5 106.438 287.75 106.625 289.188 106.438C290.688 106.25 292.375 105.469 294.25 104.094C295.812 102.906 297.125 101 298.188 98.375C299.062 96.125 299.75 92.9688 300.25 88.9062C300.75 84.8438 300.656 79.5 299.969 72.875C298.844 76.75 297.312 79.7188 295.375 81.7812C293.438 83.8438 291.5 85.3438 289.562 86.2812C287.312 87.4062 284.969 88 282.531 88.0625C279.281 87.9375 276.5 87.5312 274.188 86.8438C271.875 86.0938 269.969 85.0938 268.469 83.8438C266.969 82.5938 265.781 81.125 264.906 79.4375C264.094 77.6875 263.5 75.75 263.125 73.625C262.75 71.5 262.562 69.375 262.562 67.25C262.562 65.0625 262.562 63.0312 262.562 61.1562C262.625 59.2812 262.656 57.5938 262.656 56.0938C262.656 54.5312 262.5 53.2812 262.188 52.3438C261.812 51.4062 261.312 50.4688 260.688 49.5312C260.188 48.7188 259.5 47.8438 258.625 46.9062C257.688 45.9062 256.594 44.9688 255.344 44.0938Z" fill="#356791" fill-opacity="0.2"/>
</svg>
