<svg width="48" height="48" viewBox="0 0 48 48" fill="none" xmlns="http://www.w3.org/2000/svg">
<rect x="0.5" y="0.5" width="47" height="47" rx="23.5" stroke="#D9D9D9"/>
<g clip-path="url(#clip0_51_4)">
<path d="M10.6714 11.2337C11.4217 11.2449 12.078 11.2459 12.6405 11.2367C13.2025 11.204 13.6593 11.1848 14.0108 11.1791L15.0302 11.1624C15.2876 11.1348 15.6038 11.1179 15.9787 11.1117C16.3068 11.1064 16.7052 11.0999 17.1739 11.0922C17.6426 11.0845 18.1817 11.0874 18.7914 11.1009C18.9896 11.754 19.2111 12.395 19.4558 13.0239C19.7235 13.629 19.9551 14.176 20.1507 14.6651C20.3946 15.2471 20.6379 15.794 20.8807 16.3057C21.1235 16.8174 21.4149 17.4338 21.7548 18.1549C22.046 18.7596 22.3981 19.504 22.811 20.388C23.2236 21.2485 23.7086 22.2368 24.266 23.3529C24.5119 22.6222 24.7353 21.9505 24.9362 21.3377C25.1606 20.7246 25.3512 20.1941 25.5079 19.7461C25.687 19.2275 25.8316 18.7563 25.9419 18.3326C26.0522 17.9088 26.1726 17.3912 26.3033 16.7796C26.412 16.2621 26.5307 15.639 26.6595 14.9102C26.8116 14.1811 26.9619 13.3348 27.1102 12.3713C27.7898 12.3602 28.3991 12.3502 28.9381 12.3414C29.4771 12.3326 29.9455 12.3132 30.3435 12.2832C30.7888 12.2759 31.187 12.2577 31.5381 12.2285C31.9131 12.2224 32.4165 12.1907 33.0485 12.1335C33.5867 12.0778 34.3009 12.031 35.191 11.993C36.1042 11.9312 37.2281 11.8542 38.5627 11.762C38.0763 12.1216 37.6837 12.4796 37.3848 12.8361C37.1089 13.1688 36.8911 13.4654 36.7313 13.7258C36.5488 14.0335 36.4364 14.3284 36.3941 14.6104C36.3511 14.8455 36.313 15.3852 36.28 16.2296C36.2703 17.0737 36.2517 18.0819 36.224 19.2544C36.2193 20.4031 36.216 21.6338 36.214 22.9465C36.2355 24.2588 36.2675 25.5006 36.3101 26.6719C36.3527 27.8433 36.4046 28.8621 36.4656 29.7284C36.5497 30.5709 36.6523 31.1084 36.7733 31.3408C36.9419 31.6193 37.1699 31.9437 37.4572 32.3141C37.7204 32.638 38.0546 33.0075 38.4599 33.4229C38.8886 33.8378 39.447 34.2974 40.135 34.8019C39.0578 34.8664 38.1561 34.9163 37.4301 34.9516C36.7274 34.9865 36.1419 35.0196 35.6736 35.0507C35.135 35.0829 34.7017 35.1017 34.3736 35.1071C34.0221 35.1128 33.5419 35.1324 32.933 35.1658C32.3944 35.1981 31.6802 35.2449 30.7904 35.3063C29.9003 35.3443 28.7528 35.41 27.3479 35.5033C27.6698 35.123 27.9684 34.743 28.2434 34.3635C28.5185 33.9839 28.7473 33.6403 28.9298 33.3326C29.1584 32.9773 29.352 32.6342 29.5107 32.3034C29.6674 31.8555 29.7831 31.0449 29.8577 29.8717C29.9349 28.8624 29.9817 27.4201 29.9979 25.5446C30.0137 23.6456 29.9721 21.103 29.8731 17.9167C29.4397 18.6504 29.0532 19.3834 28.7136 20.1156C28.397 20.824 28.1146 21.4733 27.8664 22.0633C27.5963 22.7475 27.3493 23.4079 27.1253 24.0445C26.9017 24.7045 26.6675 25.4349 26.4228 26.2359C26.1995 26.9194 25.9316 27.7324 25.6188 28.6752C25.3295 29.6175 24.9948 30.6544 24.6149 31.7858L23.2802 31.8779C23.0774 30.9436 22.8762 30.103 22.6764 29.3562C22.4763 28.5859 22.2781 27.9328 22.0818 27.3969C21.8605 26.7676 21.6404 26.2087 21.4215 25.72C21.1791 25.2317 20.9123 24.6852 20.6211 24.0805C20.3549 23.5692 20.0286 22.9651 19.6421 22.2682C19.2791 21.5709 18.8562 20.7925 18.3733 19.9331C18.1781 22.3273 18.0693 24.2746 18.0469 25.7752C18.0242 27.2523 18.043 28.4006 18.1033 29.22C18.1662 30.2035 18.2482 30.9171 18.3493 31.3608C18.4964 31.7569 18.7263 32.1985 19.039 32.6857C19.3037 33.1033 19.6634 33.6014 20.1182 34.1799C20.5961 34.7347 21.2041 35.3577 21.942 36.0488C21.4265 36.0572 20.8875 36.0661 20.3251 36.0753C19.7626 36.0845 19.2473 36.1046 18.779 36.1357C18.2169 36.1683 17.6664 36.1891 17.1274 36.1979C16.5654 36.2305 15.9098 36.2764 15.1606 36.3355C14.5053 36.3931 13.721 36.4528 12.8078 36.5147C11.8946 36.5765 10.8414 36.6757 9.64818 36.8125C10.1584 36.4759 10.575 36.1527 10.8981 35.8427C11.2208 35.5092 11.4738 35.2121 11.6571 34.9512C11.8864 34.6428 12.0572 34.3352 12.1694 34.0287C12.2366 33.84 12.2885 33.429 12.325 32.7955C12.385 32.1616 12.4309 31.3873 12.4628 30.4726C12.5182 29.5575 12.5484 28.5374 12.5534 27.4121C12.5819 26.2865 12.5985 25.1494 12.6031 24.0007C12.6308 22.8282 12.6474 21.6911 12.6528 20.5893C12.6578 19.464 12.6531 18.4562 12.6385 17.5657C12.647 16.6513 12.6463 15.8895 12.6363 15.2802C12.6263 14.671 12.62 14.2843 12.6173 14.1202C12.5413 13.7699 12.4301 13.4201 12.2837 13.0709C12.1615 12.7681 11.9689 12.4548 11.7058 12.131C11.4426 11.8071 11.0978 11.508 10.6714 11.2337Z" fill="#F4F7FF"/>
</g>
<defs>
<clipPath id="clip0_51_4">
<rect width="44.4684" height="31" fill="white" transform="matrix(0 1 -1 0 41.0449 0.964905)"/>
</clipPath>
</defs>
</svg>
